<svg id="Layer_1" height="512" viewBox="0 0 512 512" width="512" xmlns="http://www.w3.org/2000/svg" data-name="Layer 1"><path d="m51.316 277.389a6 6 0 0 0 -6 6v6.3a6 6 0 0 0 12 0v-6.3a6 6 0 0 0 -6-6z"/><path d="m51.316 302.685a6 6 0 0 0 -6 6v76a6 6 0 0 0 12 0v-76a6 6 0 0 0 -6-6z"/><path d="m324.942 207.245a68.927 68.927 0 1 0 -68.926 68.926 69 69 0 0 0 68.926-68.926zm-125.853 0a56.927 56.927 0 1 1 56.927 56.926 56.991 56.991 0 0 1 -56.927-56.926z"/><path d="m272.692 196.1a11.149 11.149 0 0 1 0 22.3 6 6 0 0 0 0 12 23.187 23.187 0 0 0 22.356-17.149h4.931a6 6 0 0 0 0-12h-4.931a23.148 23.148 0 0 0 -45.5 6 11.142 11.142 0 0 1 -22.266.623 6.081 6.081 0 0 0 0-1.246 11.154 11.154 0 0 1 11.118-10.528 6 6 0 0 0 0-12 23.188 23.188 0 0 0 -22.357 17.149h-3.984a6 6 0 1 0 0 12h3.984a23.148 23.148 0 0 0 45.505-6 11.162 11.162 0 0 1 11.144-11.149z"/><path d="m473.392 197.825-109.507-65.031v-88.794a19.021 19.021 0 0 0 -19-19h-177.739a19.022 19.022 0 0 0 -19 19v88.783l-109.508 65.042a36.16 36.16 0 0 0 -17.616 30.952v222.223a36.04 36.04 0 0 0 36 36h397.988a36.04 36.04 0 0 0 36-36v-222.222a36.162 36.162 0 0 0 -17.618-30.953zm-109.507-51.075 103.38 61.393a23.825 23.825 0 0 1 5.779 4.826l-109.159 76.2zm-19-109.75a7.008 7.008 0 0 1 7 7v40.45a53.885 53.885 0 0 1 -47.45-47.45zm-184.739 7a7.008 7.008 0 0 1 7-7h40.454a53.884 53.884 0 0 1 -47.451 47.45zm-115.38 164.143 103.38-61.4v8.257a6 6 0 0 0 6 6 6 6 0 0 0 6-6v-58.493a65.887 65.887 0 0 0 59.508-59.507h72.724a65.887 65.887 0 0 0 59.507 59.507v200.993l1.554-1.036-97.439 68.022-98.111-68.486 2.257 1.5v-102.5a6 6 0 0 0 -6-6 6 6 0 0 0 -6 6v94.194l-109.171-76.212a23.833 23.833 0 0 1 5.791-4.839zm-11.744 242.857v-222.223a23.76 23.76 0 0 1 .529-4.946l146.611 102.348-146.08 131.878a23.922 23.922 0 0 1 -1.06-7.057zm421.988 24h-397.988a23.911 23.911 0 0 1 -16.5-6.593l149.738-135.179 62.305 43.5a6 6 0 0 0 6.87 0l64.265-44.869 147.4 136.934a23.906 23.906 0 0 1 -16.09 6.207zm24-24a23.9 23.9 0 0 1 -1.243 7.609l-144-133.777 144.71-101.021a23.834 23.834 0 0 1 .533 4.967z"/></svg>