<svg width="48" height="48" viewBox="0 0 48 48" fill="none" xmlns="http://www.w3.org/2000/svg">
<circle cx="24" cy="24" r="24" fill="#F6F8FD"/>
<path d="M34 21H29.21L24.83 14.44C24.64 14.16 24.32 14.02 24 14.02C23.68 14.02 23.36 14.16 23.17 14.45L18.79 21H14C13.45 21 13 21.45 13 22C13 22.09 13.01 22.18 13.04 22.27L15.58 31.54C15.81 32.38 16.58 33 17.5 33H30.5C31.42 33 32.19 32.38 32.43 31.54L34.97 22.27L35 22C35 21.45 34.55 21 34 21ZM24 16.8L26.8 21H21.2L24 16.8ZM30.5 31L17.51 31.01L15.31 23H32.7L30.5 31ZM24 25C22.9 25 22 25.9 22 27C22 28.1 22.9 29 24 29C25.1 29 26 28.1 26 27C26 25.9 25.1 25 24 25Z" fill="#01B574"/>
</svg>
