<svg width="48" height="47" viewBox="0 0 48 47" fill="none" xmlns="http://www.w3.org/2000/svg">
<ellipse cx="24" cy="23.5" rx="24" ry="23.5" fill="#F6F8FD"/>
<path d="M24 13.7083C19.58 13.7083 16 14.1979 16 17.625V27.4166C16 28.2783 16.39 29.0519 17 29.5904V31.3333C17 31.8719 17.45 32.3125 18 32.3125H19C19.55 32.3125 20 31.8719 20 31.3333V30.3541H28V31.3333C28 31.8719 28.45 32.3125 29 32.3125H30C30.55 32.3125 31 31.8719 31 31.3333V29.5904C31.61 29.0519 32 28.2783 32 27.4166V17.625C32 14.1979 28.42 13.7083 24 13.7083ZM29.66 16.636H18.34C18.89 16.1171 20.31 15.6666 24 15.6666C27.69 15.6666 29.11 16.1171 29.66 16.636ZM30 18.5944V21.5416H18V18.5944H30ZM29.66 28.1314L29.37 28.3958H18.63L18.34 28.1314C18.21 28.0237 18 27.7789 18 27.4166V23.5H30V27.4166C30 27.7789 29.79 28.0237 29.66 28.1314Z" fill="#7D6DC5"/>
<path d="M20.5 27.4167C21.3284 27.4167 22 26.7591 22 25.9479C22 25.1368 21.3284 24.4792 20.5 24.4792C19.6716 24.4792 19 25.1368 19 25.9479C19 26.7591 19.6716 27.4167 20.5 27.4167Z" fill="#7D6DC5"/>
<path d="M27.5 27.4167C28.3284 27.4167 29 26.7591 29 25.9479C29 25.1368 28.3284 24.4792 27.5 24.4792C26.6716 24.4792 26 25.1368 26 25.9479C26 26.7591 26.6716 27.4167 27.5 27.4167Z" fill="#7D6DC5"/>
</svg>
