<svg width="0" height="0" class="hidden">


  <symbol xmlns="http://www.w3.org/2000/svg" viewBox="0 0 13 7" id="arrow">
    <path d="M6.49519 6.75L12.9952 0L6.49519 1.75L0 0L6.49519 6.75Z"></path>
  </symbol>



  <symbol fill="none" xmlns="http://www.w3.org/2000/svg" viewBox="0 0 48 48" id="basket">
    <circle cx="24" cy="24" r="24" fill="#F6F8FD"></circle>
    <path d="M34 21H29.21L24.83 14.44C24.64 14.16 24.32 14.02 24 14.02C23.68 14.02 23.36 14.16 23.17 14.45L18.79 21H14C13.45 21 13 21.45 13 22C13 22.09 13.01 22.18 13.04 22.27L15.58 31.54C15.81 32.38 16.58 33 17.5 33H30.5C31.42 33 32.19 32.38 32.43 31.54L34.97 22.27L35 22C35 21.45 34.55 21 34 21ZM24 16.8L26.8 21H21.2L24 16.8ZM30.5 31L17.51 31.01L15.31 23H32.7L30.5 31ZM24 25C22.9 25 22 25.9 22 27C22 28.1 22.9 29 24 29C25.1 29 26 28.1 26 27C26 25.9 25.1 25 24 25Z" fill="#01B574"></path>
  </symbol>



  <symbol fill="none" xmlns="http://www.w3.org/2000/svg" viewBox="0 0 48 47" id="bus">
    <ellipse cx="24" cy="23.5" rx="24" ry="23.5" fill="#F6F8FD"></ellipse>
    <path d="M24 13.7083C19.58 13.7083 16 14.1979 16 17.625V27.4166C16 28.2783 16.39 29.0519 17 29.5904V31.3333C17 31.8719 17.45 32.3125 18 32.3125H19C19.55 32.3125 20 31.8719 20 31.3333V30.3541H28V31.3333C28 31.8719 28.45 32.3125 29 32.3125H30C30.55 32.3125 31 31.8719 31 31.3333V29.5904C31.61 29.0519 32 28.2783 32 27.4166V17.625C32 14.1979 28.42 13.7083 24 13.7083ZM29.66 16.636H18.34C18.89 16.1171 20.31 15.6666 24 15.6666C27.69 15.6666 29.11 16.1171 29.66 16.636ZM30 18.5944V21.5416H18V18.5944H30ZM29.66 28.1314L29.37 28.3958H18.63L18.34 28.1314C18.21 28.0237 18 27.7789 18 27.4166V23.5H30V27.4166C30 27.7789 29.79 28.0237 29.66 28.1314Z" fill="#7D6DC5"></path>
    <path d="M20.5 27.4167C21.3284 27.4167 22 26.7591 22 25.9479C22 25.1368 21.3284 24.4792 20.5 24.4792C19.6716 24.4792 19 25.1368 19 25.9479C19 26.7591 19.6716 27.4167 20.5 27.4167Z" fill="#7D6DC5"></path>
    <path d="M27.5 27.4167C28.3284 27.4167 29 26.7591 29 25.9479C29 25.1368 28.3284 24.4792 27.5 24.4792C26.6716 24.4792 26 25.1368 26 25.9479C26 26.7591 26.6716 27.4167 27.5 27.4167Z" fill="#7D6DC5"></path>
  </symbol>



  <symbol fill="none" xmlns="http://www.w3.org/2000/svg" viewBox="0 0 48 48" id="media">
    <circle cx="24" cy="24" r="24" fill="#F6F8FD"></circle>
    <path d="M16 18H32V20H16V18ZM18 14H30V16H18V14ZM32 22H16C14.9 22 14 22.9 14 24V32C14 33.1 14.9 34 16 34H32C33.1 34 34 33.1 34 32V24C34 22.9 33.1 22 32 22ZM32 32H16V24H32V32ZM22 24.73V31.26L28 28L22 24.73Z" fill="#FFB547"></path>
  </symbol>



  <symbol fill="none" xmlns="http://www.w3.org/2000/svg" viewBox="0 0 48 48" id="plus">
    <circle cx="24" cy="24" r="24" fill="#F6F8FD"></circle>
    <path d="M16.68 25.92V22.71H22.32V17.52H25.59V22.71H31.2V25.92H25.59V31.11H22.32V25.92H16.68Z" fill="black"></path>
  </symbol>
</svg>